<svg id="Layer_1" enable-background="new 0 0 124 124" height="512" viewBox="0 0 124 124" width="512" xmlns="http://www.w3.org/2000/svg"><g fill="#0087ff"><path d="m19.089 111h-17.089c-1.104 0-2-.896-2-2v-17.638c0-1.104.896-2 2-2s2 .896 2 2v15.638h15.089c1.104 0 2 .896 2 2s-.895 2-2 2z"/><path d="m122 111h-17.058c-1.104 0-2-.896-2-2s.896-2 2-2h15.058v-15.637c0-1.104.896-2 2-2s2 .896 2 2v17.637c0 1.104-.896 2-2 2z"/><path d="m122 34.013c-1.104 0-2-.896-2-2v-15.013h-15.445c-1.104 0-2-.896-2-2s.896-2 2-2h17.445c1.104 0 2 .896 2 2v17.013c0 1.104-.896 2-2 2z"/><path d="m2 35.463c-1.104 0-2-.896-2-2v-17.357c0-1.104.896-2 2-2h16.671c1.104 0 2 .896 2 2s-.896 2-2 2h-14.671v15.357c0 1.105-.896 2-2 2z"/></g><path d="m12 25h100v74h-100z" fill="#d7f4ff"/><path d="m49.466 43.416c3.434-3.458 9.003-3.458 12.437 0s3.434 9.064 0 12.521-9.003 3.458-12.437 0-3.434-9.063 0-12.521z" fill="#ffcc64"/><path d="m64.453 49.129c-1.379-1.395-3.843-1.016-4.673.79-.481 1.046-1.21 1.978-2.107 2.691-1.339 1.065-1.048 4.39.31 5.099.498.26.698.3 1.2.082 1.013-.44 1.941-1.071 2.719-1.854 1.6-1.611 2.444-3.688 2.551-5.797.032-.011.045-.267 0-1.011z" fill="#f9b43a"/><path d="m50.67 50.23c.161-1.042.315-2.098.823-3.019.891-1.618-.433-3.547-2.206-3.596-2.204 2.356-2.89 5.625-2.044 8.547.548.309 3.101.182 3.427-1.932z" fill="#ffe6c2"/><path d="m36.496 62.479-24.496 28.306v8.215h30.599l12.236-14.516z" fill="#44ac3d"/><path d="m36.496 62.479-14.143 16.333c-1.405 1.624-1.489 4.203-.209 5.924 1.445 1.942 4.205 2.116 5.807.265l14.098-15.859z" fill="#64c35b"/><path d="m54.835 84.484-12.236 14.516h69.401v-13.903l-28.905-34.137z" fill="#44ac3d"/><path d="m112 98.74-.001-13.955c-2.682-3.167-9.197-10.393-9.197-10.393-1.317-1.551-3.49-1.602-4.863-.121-1.372 1.484-1.421 3.946-.107 5.496l7.278 8.509.005 4.289h-86.72c-1.763 0-3.191 1.44-3.191 3.217s1.428 3.218 3.191 3.218h93.582c.005-.088.023-.171.023-.26z" fill="#237f19"/></svg>